<svg xmlns="http://www.w3.org/2000/svg" width="20" height="23" viewBox="0 0 20 23">
  <g fill-rule="evenodd" transform="translate(-1298 -26)">
    <path d="M12.999997,11.7082702 C12.999995,11.7074637 12.999994,11.7066569 12.999994,11.70585 C12.999994,11.164375 13.447714,10.725425 14.000006,10.725425 C14.552272,10.725425 14.999992,11.164375 14.999992,11.70585 C14.999992,11.7064086 14.9999915,11.7069671 14.9999906,11.7075255 C14.9990684,17.1213055 10.5222483,21.5098 4.999976,21.5098 C-0.52284,21.5098 -5.000014,17.1204 -5.000014,11.70585 C-5.000014,6.29308361 -0.52583048,1.90490739 4.99444207,1.90197647 L4.99490898,3.86270144 C0.578939889,3.8653988 -3.000016,7.3758645 -3.000016,11.70585 C-3.000016,16.03745 0.581692,19.54895 5.000002,19.54895 C9.41746311,19.54895 12.9986598,16.0387579 12.9999936,11.7082702 Z M5.00790546,5.60486532 L5.00788053,0.739353851 C4.97171062,0.441403908 5.07042778,0.130864024 5.304072,-0.097675 C5.708892,-0.493675 6.36547,-0.493475 6.770602,-0.097225 L10.1823194,2.28945799 C10.2500323,2.3261842 10.3144273,2.37089593 10.3740658,2.42359506 L10.41224,2.4503 C10.6163027,2.64992645 10.7176461,2.91193171 10.7162537,3.17344176 C10.7170277,3.43417205 10.6156876,3.69522518 10.41224,3.894275 L10.3740491,3.9209906 C10.3144254,3.97366879 10.2500496,4.01836592 10.1823597,4.05508252 L6.770602,6.4417 C6.365496,6.83805 5.708892,6.8382 5.304072,6.44225 C5.07035265,6.21359418 4.97164714,5.90291809 5.00790546,5.60486532 Z" transform="translate(1303 27)"/>
  </g>
</svg>
