<?xml version="1.0" encoding="UTF-8"?>
<svg version="1.1" viewBox="0 0 18 16" xmlns="http://www.w3.org/2000/svg">
<g fill-rule="evenodd">
<g transform="translate(-881 -53)">
<g transform="translate(868 39)">
<path d="m19.691 24.988h4.6186c0.4322 0 0.78261-0.34525 0.78261-0.77108 0-0.42583-0.35041-0.77108-0.78261-0.77108h-4.6186c-0.4322 0-0.78261 0.34525-0.78261 0.77108 0 0.42583 0.35041 0.77108 0.78261 0.77108zm9.4989-3.8554h-14.384l2.0432 7.3253h5.1507 5.1118l2.0778-7.3253zm1.8106-2.9664v2.1008 0.0015421 3.856e-4 0.0011566c0 1.928e-4 -1.957e-4 1.928e-4 -1.957e-4 1.928e-4 -3.913e-4 0.076144-0.011739 0.14959-0.03287 0.21899l-2.5049 8.9448c-0.093717 0.33427-0.40246 0.56598-0.75443 0.56598h-11.457c-0.35335 0-0.66287-0.23325-0.75541-0.56925l-2.4631-8.9448c-0.011544-0.037976-0.020152-0.077301-0.025435-0.1174-0.0052826-0.039904-0.0066522-0.079807-0.0066522-0.11913v-2.0833c0-0.42583 0.35041-0.77108 0.78261-0.77108 0.4322 0 0.78261 0.34525 0.78261 0.77108v1.4242h14.87v-1.4242c0-0.42583 0.35041-0.77108 0.78261-0.77108 0.4322 0 0.78261 0.34525 0.78261 0.77108zm-12.853-2.8168h7.7056c0.3782 0 0.68478-0.30207 0.68478-0.6747s-0.30659-0.6747-0.68478-0.6747h-7.7056c-0.3782 0-0.68478 0.30207-0.68478 0.6747s0.30659 0.6747 0.68478 0.6747zm-2.0665 1.9277c0-0.42583 0.35061-0.77108 0.78261-0.77108h10.273c0.4322 0 0.78261 0.34525 0.78261 0.77108 0 0.42583-0.35041 0.77108-0.78261 0.77108h-10.273c-0.432 0-0.78261-0.34525-0.78261-0.77108z"/>
</g>
</g>
</g>
</svg>
