<?xml version="1.0" encoding="UTF-8"?>
<svg version="1.1" viewBox="0 0 16 13" xmlns="http://www.w3.org/2000/svg">
<g>
<g transform="translate(-396 -53)">
<g transform="translate(388 44)" fill-rule="evenodd">
<path d="m22.291 13.889l-2.6355-2.5692v0.81217c0 0.37233-0.30365 0.67417-0.6913 0.67417-2.1548 0-3.8142 0.55317-4.9459 1.6442-0.51548 0.497-0.864 1.0518-1.1017 1.5758 1.636-0.93383 3.7014-1.1015 4.9713-1.1015 0.65513 0 1.0897 0.044667 1.1537 0.0515 0.3553 0.038 0.61391 0.3265 0.61391 0.67017v0.81217l2.6355-2.5695zm1.5075 0.47317l-4.3231 4.2147c-0.2 0.19483-0.50713 0.2545-0.77113 0.15067-0.26348-0.10367-0.44035-0.35033-0.44035-0.62383v-1.822c-1.3918-0.038-4.7365 0.095833-5.9422 2.1528-0.12643 0.21583-0.36035 0.3435-0.60921 0.3435-0.058782 0-0.11687-7e-3 -0.17565-0.021833-0.30835-0.077-0.52348-0.344-0.52469-0.65-5.217e-4 -0.10833 0.0083478-2.677 2.0108-4.6077 1.2727-1.227 2.9795-1.906 5.241-2.0227v-1.8012c0-0.2735 0.17687-0.52017 0.44035-0.62383 0.26365-0.104 0.56869-0.044333 0.76869 0.1505l4.3242 4.2143c0.26939 0.2625 0.27061 0.684 0.0013913 0.9465zm-3.0991 6.2207v0.84083c0 0.37233-0.32869 0.57667-0.71634 0.57667h-11.352c-0.38765 0-0.6313-0.20433-0.6313-0.57667v-8.2423c0-0.3725 0.24365-0.69967 0.6313-0.69967h2.0383c0.38765 0 0.70208 0.29567 0.70208 0.668 0 0.37233-0.31443 0.668-0.70208 0.668h-1.2777v6.8467h9.916v-0.0815c0-0.3725 0.30817-0.67433 0.696-0.67433 0.38765 0 0.69582 0.30183 0.69582 0.67433z"/>
</g>
</g>
</g>
</svg>
