<?xml version="1.0" encoding="UTF-8"?>
<svg version="1.1" viewBox="0 0 16 16" xmlns="http://www.w3.org/2000/svg">
<g>
<g transform="translate(-442 -246)">
<g transform="translate(104 110)">
<g transform="translate(210 136)" fill-rule="evenodd">
<path d="m142.61 8c0-3.644-2.9647-6.6087-6.6087-6.6087s-6.6087 2.9647-6.6087 6.6087 2.9647 6.6087 6.6087 6.6087 6.6087-2.9647 6.6087-6.6087m1.3913 0c0 4.4111-3.5889 8-8 8s-8-3.5889-8-8c0-4.4111 3.5889-8 8-8s8 3.5889 8 8m-8.0452 2.7861c-0.22957 0-0.45217 0.093913-0.61565 0.25565-0.16174 0.16174-0.25391 0.38609-0.25391 0.61391 0 0.22957 0.092174 0.45391 0.25391 0.61565 0.16348 0.16174 0.38609 0.25565 0.61565 0.25565 0.22956 0 0.45391-0.093913 0.61565-0.25565 0.16174-0.16174 0.25391-0.38609 0.25391-0.61565 0-0.22783-0.092174-0.45217-0.25391-0.61391-0.16174-0.16174-0.38609-0.25565-0.61565-0.25565m2.6403-6.3522c0.54991 0.62017 0.80991 1.4857 0.70313 2.375-0.2007 1.6699-1.4219 2.2649-2.5085 2.2649-0.045391 0-0.094087 0.0012174-0.094087 0.0029565v0.42226c0 0.38417-0.31148 0.69565-0.69565 0.69565s-0.69565-0.31148-0.69565-0.69565v-0.56052c0-0.57304 0.23896-1.256 1.4854-1.256 0.67252 0 1.0329-0.34974 1.1158-1.0395 0.028-0.23391 0.049565-0.82765-0.35704-1.2857-0.33044-0.37252-0.86661-0.56139-1.5937-0.56139-1.5739 0-1.6193 1.0176-1.6193 1.1336 0 0.38417-0.31148 0.69565-0.69565 0.69565s-0.69565-0.31148-0.69565-0.69565c0-0.70226 0.54087-2.5249 3.0106-2.5249 1.4228 0 2.2237 0.55983 2.6403 1.0294"/>
</g>
</g>
</g>
</g>
</svg>
