<svg xmlns="http://www.w3.org/2000/svg" width="14" height="18" viewBox="0 0 14 18">
  <path fill-rule="evenodd" d="M28.1764706,14 C28.6312647,14 29,14.3663409 29,14.8181818 L29,31.1818182 C29,31.6336591 28.6312647,32 28.1764706,32 L15.8235294,32 C15.3687353,32 15,31.6336591 15,31.1818182 L15,14.8181818 C15,14.3663409 15.3687353,14 15.8235294,14 L28.1764706,14 Z M16.6470588,30.3636364 L27.3529412,30.3636364 L27.3529412,15.6363636 L16.6470588,15.6363636 L16.6470588,30.3636364 Z M24.8782353,24.4267045 C25.0120588,24.5596591 25.0882353,24.74375 25.0882353,24.9339773 C25.0882353,25.1221591 25.0120588,25.30625 24.8782353,25.4392045 C24.7444118,25.5721591 24.5570588,25.6478409 24.3676471,25.6478409 C24.1782353,25.6478409 23.9929412,25.5721591 23.8591176,25.4392045 C23.7232353,25.30625 23.6470588,25.1221591 23.6470588,24.9339773 C23.6470588,24.74375 23.7232353,24.5596591 23.8591176,24.4267045 C24.1267647,24.1607955 24.6105882,24.1607955 24.8782353,24.4267045 Z M18.7058824,18.6022727 C18.7058824,18.2068864 19.0282941,17.8863636 19.4264706,17.8863636 L24.3270882,17.8863636 C24.7250588,17.8863636 25.0476765,18.2068864 25.0476765,18.6022727 C25.0476765,18.9976591 24.7250588,19.3181818 24.3270882,19.3181818 L19.4264706,19.3181818 C19.0282941,19.3181818 18.7058824,18.9976591 18.7058824,18.6022727 Z M18.7058824,21.6704545 C18.7058824,21.2750682 19.0282941,20.9545455 19.4264706,20.9545455 L24.3270882,20.9545455 C24.7250588,20.9545455 25.0476765,21.2750682 25.0476765,21.6704545 C25.0476765,22.0658409 24.7250588,22.3863636 24.3270882,22.3863636 L19.4264706,22.3863636 C19.0282941,22.3863636 18.7058824,22.0658409 18.7058824,21.6704545 Z M18.5,24.9431818 C18.5,24.5477955 18.8226176,24.2272727 19.2205882,24.2272727 L21.6543235,24.2272727 C22.0522941,24.2272727 22.3749118,24.5477955 22.3749118,24.9431818 C22.3749118,25.3385682 22.0522941,25.6590909 21.6543235,25.6590909 L19.2205882,25.6590909 C18.8226176,25.6590909 18.5,25.3385682 18.5,24.9431818 Z" transform="translate(-15 -14)"/>
</svg>
