<?xml version="1.0" encoding="UTF-8"?>
<svg version="1.1" viewBox="0 0 18 18" xmlns="http://www.w3.org/2000/svg">
<g fill-rule="evenodd">
<g transform="translate(-23 -26)" stroke="#fff" stroke-width=".5">
<g transform="translate(24 24)">
<g transform="translate(0 3)">
<path d="m14.435 7h-3.8712c-0.86253 0-1.5643-0.70159-1.5643-1.5642v-3.8715c0-0.86251 0.70173-1.5642 1.5643-1.5642h3.8712c0.86278 0 1.5645 0.70171 1.5645 1.5642v3.8715c0 0.86264-0.70173 1.5642-1.5645 1.5642zm-3.8712-6.3635c-0.51173 0-0.92789 0.41628-0.92789 0.92775v3.8715c0 0.51147 0.41617 0.92787 0.92789 0.92787h3.8712c0.51173 0 0.92814-0.41641 0.92814-0.92787v-3.8715c0-0.51147-0.41641-0.92775-0.92814-0.92775h-3.8712z"/>
<path d="m14.435 16h-3.8712c-0.86253 0-1.5643-0.70171-1.5643-1.5642v-3.8715c0-0.86264 0.70173-1.5642 1.5643-1.5642h3.8712c0.86278 0 1.5645 0.70159 1.5645 1.5642v3.8715c0 0.86251-0.70173 1.5642-1.5645 1.5642zm-3.8712-6.3636c-0.51173 0-0.92789 0.41641-0.92789 0.92787v3.8715c0 0.51147 0.41617 0.92775 0.92789 0.92775h3.8712c0.51173 0 0.92814-0.41628 0.92814-0.92775v-3.8715c0-0.51147-0.41641-0.92787-0.92814-0.92787h-3.8712z"/>
<path d="m5.4357 7h-3.8712c-0.86278 0-1.5645-0.70159-1.5645-1.5642v-3.8715c0-0.86251 0.70173-1.5642 1.5645-1.5642h3.8712c0.86253 0 1.5643 0.70171 1.5643 1.5642v3.8715c0 0.86264-0.70173 1.5642-1.5643 1.5642zm-3.8712-6.3635c-0.51173 0-0.92814 0.41628-0.92814 0.92775v3.8715c0 0.51147 0.41641 0.92787 0.92814 0.92787h3.8712c0.51173 0 0.92789-0.41641 0.92789-0.92787v-3.8715c0-0.51147-0.41617-0.92775-0.92789-0.92775h-3.8712z"/>
<path d="m5.4357 16h-3.8712c-0.86278 0-1.5645-0.70171-1.5645-1.5642v-3.8715c0-0.86264 0.70173-1.5642 1.5645-1.5642h3.8712c0.86253 0 1.5643 0.70159 1.5643 1.5642v3.8715c0 0.86251-0.70173 1.5642-1.5643 1.5642zm-3.8712-6.3636c-0.51173 0-0.92814 0.41641-0.92814 0.92787v3.8715c0 0.51147 0.41641 0.92787 0.92814 0.92787h3.8712c0.51173 0 0.92789-0.41641 0.92789-0.92787v-3.8715c0-0.51147-0.41617-0.92787-0.92789-0.92787h-3.8712z"/>
</g>
</g>
</g>
</g>
</svg>
