<?xml version="1.0" encoding="UTF-8"?>
<svg version="1.1" viewBox="0 0 18 18" xmlns="http://www.w3.org/2000/svg">
<g fill-rule="evenodd">
<g transform="translate(-23 -366)" stroke="#fff" stroke-width=".5">
<g transform="translate(24 24)">
<g transform="translate(0 343)">
<path d="m7.9395 10.162c-1.2258 0-2.2231-0.99746-2.2231-2.2231s0.99733-2.2231 2.2231-2.2231c1.2259 0 2.2231 0.99746 2.2231 2.2231s-0.99721 2.2231-2.2231 2.2231zm0-3.8111c-0.87553 0-1.588 0.71206-1.588 1.588 0 0.87591 0.71243 1.5878 1.588 1.5878 0.87553 0 1.588-0.71194 1.588-1.5878 0-0.87591-0.71243-1.588-1.588-1.588z"/>
<path d="m9.7604 15.879c-0.058667 0-0.11647-0.016124-0.16719-0.047752-0.25302-0.15628-0.4614-0.36788-0.61879-0.62772-0.22115-0.3654-0.608-0.58307-1.0349-0.58307s-0.81389 0.21767-1.0348 0.58307c-0.15777 0.26047-0.36614 0.47144-0.61904 0.62772-0.071938 0.044651-0.15826 0.057674-0.24074 0.03907-0.83907-0.19969-1.6378-0.53098-2.3744-0.98505-0.071938-0.044651-0.12341-0.11597-0.14251-0.19845-0.067597-0.28974-0.065364-0.58555 0.0069457-0.87888 0.10195-0.41501-0.017364-0.84304-0.3195-1.1444-0.30177-0.30214-0.72992-0.42307-1.1439-0.3195-0.29495 0.071938-0.59101 0.075039-0.87975 0.0068217-0.082357-0.019225-0.1538-0.070078-0.1982-0.14202-0.45371-0.73687-0.78512-1.5358-0.98481-2.3744-0.019845-0.082481-0.0055814-0.1693 0.039194-0.24124 0.15764-0.25439 0.36912-0.46214 0.62822-0.61842 0.36478-0.2209 0.58282-0.60788 0.58282-1.0347 0-0.42741-0.21805-0.81439-0.58307-1.0353-0.25885-0.15628-0.47033-0.36403-0.62797-0.61842-0.044775-0.071938-0.059039-0.15876-0.039194-0.24124 0.19969-0.83932 0.5311-1.6382 0.98505-2.3744 0.044279-0.071938 0.1156-0.12279 0.19795-0.14202 0.28936-0.068217 0.58505-0.066357 0.87963 0.0068217 0.41439 0.10109 0.84229-0.017364 1.1441-0.3195 0.30214-0.3014 0.42146-0.72943 0.3195-1.1444-0.072062-0.29395-0.074419-0.58989-0.0070698-0.8795 0.019225-0.082481 0.070698-0.1538 0.14288-0.19845 0.73637-0.45346 1.5351-0.78474 2.3741-0.98505 0.082357-0.018605 0.16943-0.0055814 0.24149 0.03907 0.25302 0.15752 0.46115 0.3685 0.61829 0.62772 0.22102 0.36602 0.608 0.58369 1.0349 0.58369s0.81377-0.21767 1.0348-0.58307c0.15727-0.25922 0.36515-0.47082 0.61829-0.62834 0.07231-0.044651 0.15926-0.057674 0.24161-0.03907 0.83895 0.20031 1.6376 0.5316 2.3741 0.98505 0.07231 0.044651 0.12378 0.11597 0.14301 0.19845 0.067473 0.28961 0.064992 0.58617-0.0073178 0.8795-0.10208 0.41501 0.017364 0.84304 0.31938 1.1444 0.30202 0.30214 0.72967 0.42059 1.1442 0.3195 0.2947-0.072558 0.59064-0.075659 0.87988-0.0068217 0.082357 0.019225 0.15343 0.070078 0.19783 0.14202 0.45408 0.73687 0.78536 1.5359 0.98518 2.3744 0.019721 0.082481 0.0055814 0.1693-0.039194 0.24124-0.15814 0.25439-0.36949 0.46214-0.62822 0.61842-0.36502 0.2209-0.58307 0.60788-0.58307 1.0353 0 0.42679 0.21805 0.81377 0.58319 1.0347 0.25885 0.15628 0.46995 0.36403 0.62809 0.61842 0.044775 0.071938 0.058915 0.15876 0.039194 0.24124-0.19981 0.83795-0.5311 1.637-0.98493 2.3738-0.044403 0.072558-0.11572 0.12341-0.19808 0.14264-0.28924 0.068217-0.58493 0.066357-0.87975-0.0068217-0.41538-0.10047-0.84254 0.017984-1.1443 0.3195-0.30202 0.30202-0.42146 0.72943-0.31938 1.1444 0.07231 0.29333 0.074791 0.58915 0.0070698 0.87888-0.019101 0.082481-0.07045 0.1538-0.14251 0.19845-0.7365 0.45408-1.5354 0.78536-2.3747 0.98505-0.024186 0.0055814-0.048992 0.0086822-0.073426 0.0086822zm-5.6368-1.462c0.60515 0.35721 1.2542 0.6271 1.9329 0.80198 0.12105-0.093023 0.2214-0.20651 0.30499-0.34493 0.33699-0.55628 0.92688-0.88881 1.578-0.88881s1.2411 0.33253 1.5782 0.88943c0.083349 0.1378 0.18369 0.25129 0.30474 0.34431 0.67882-0.17488 1.3279-0.44478 1.933-0.80198 0.019473-0.15144 0.0099224-0.30214-0.028155-0.45718-0.15553-0.63268 0.026419-1.2852 0.48695-1.7455 0.4604-0.46028 1.1132-0.64198 1.745-0.48695 0.15578 0.03845 0.30648 0.047752 0.45767 0.027907 0.35758-0.6054 0.62685-1.2542 0.80186-1.9322-0.093643-0.12217-0.20713-0.22202-0.34419-0.30512h-2.48e-4c-0.5569-0.33687-0.88955-0.92738-0.88955-1.578 0-0.65129 0.33265-1.2418 0.88955-1.5785 0.13718-0.083225 0.25079-0.18307 0.34443-0.30524-0.17501-0.67857-0.44428-1.3274-0.80186-1.9322-0.15045-0.019225-0.30164-0.010543-0.4578 0.027907-0.63157 0.15566-1.2845-0.026047-1.7449-0.48695-0.46053-0.46028-0.64248-1.1128-0.48707-1.7449 0.038202-0.15566 0.047752-0.30636 0.028155-0.45842-0.60502-0.35659-1.2541-0.62648-1.9327-0.80136-0.1213 0.093023-0.22177 0.20713-0.30512 0.34431-0.33699 0.55702-0.92688 0.88943-1.578 0.88943s-1.2411-0.3324-1.5782-0.88943c-0.083473-0.13718-0.18381-0.25129-0.30512-0.34431-0.67845 0.17488-1.3275 0.44478-1.9325 0.80136-0.019473 0.15206-0.010047 0.30276 0.028031 0.45842 0.15541 0.63206-0.026667 1.2846-0.48719 1.7449-0.46028 0.4609-1.1124 0.64198-1.7446 0.48695-0.15628-0.03907-0.3071-0.048372-0.4578-0.027907-0.35771 0.60478-0.62685 1.2536-0.80198 1.9328 0.093519 0.12155 0.20701 0.2214 0.34419 0.30462 0.55727 0.33674 0.8898 0.92726 0.8898 1.5785 0 0.65067-0.33253 1.2412-0.88943 1.578-0.1373 0.083101-0.25079 0.18295-0.34456 0.3045 0.17513 0.67857 0.44453 1.3274 0.80211 1.9328 0.15107 0.020465 0.30202 0.010543 0.4578-0.027907 0.63132-0.15566 1.2841 0.026046 1.7445 0.48695 0.46053 0.46028 0.6426 1.1128 0.48719 1.7449-0.038326 0.15566-0.047504 0.30636-0.028155 0.4578z"/>
</g>
</g>
</g>
</g>
</svg>
