<?xml version="1.0" encoding="UTF-8"?>
<svg version="1.1" viewBox="0 0 17 17" xmlns="http://www.w3.org/2000/svg">
<g fill-rule="evenodd">
<g transform="translate(-24 -260)">
<g transform="translate(24 24)">
<g transform="translate(0 197)">
<g transform="translate(0 40)">
<path d="m13.747 4.569c-1.2389 0-2.2468-1.0248-2.2468-2.2842 0-1.26 1.0079-2.2848 2.2468-2.2848 1.2386 0 2.2465 1.0248 2.2465 2.2848 0 1.2594-1.0079 2.2842-2.2465 2.2842zm0-3.9181c-0.88588 0-1.6066 0.73309-1.6066 1.6339s0.72075 1.6332 1.6066 1.6332c0.88575 0 1.6064-0.73246 1.6064-1.6332s-0.72062-1.6339-1.6064-1.6339z" stroke="#fff" stroke-width=".5"/>
<path d="m13.747 14.993c-1.2389 0-2.2468-1.0247-2.2468-2.2847s1.0079-2.2848 2.2468-2.2848c1.2386 0 2.2465 1.0248 2.2465 2.2848s-1.0079 2.2847-2.2465 2.2847zm0-3.9186c-0.88588 0-1.6066 0.73297-1.6066 1.6339 0 0.90076 0.72075 1.6337 1.6066 1.6337 0.88575 0 1.6064-0.73297 1.6064-1.6337 0-0.90089-0.72062-1.6339-1.6064-1.6339z" stroke="#fff" stroke-width=".5"/>
<path d="m3.4968 9.7827c-1.2389 0-2.2468-1.0253-2.2468-2.2861 0-1.2599 1.0079-2.2847 2.2468-2.2847 1.2388 0 2.2466 1.0248 2.2466 2.2847 0 1.2608-1.0079 2.2861-2.2466 2.2861zm0-3.9198c-0.88588 0-1.6066 0.73297-1.6066 1.6337 0 0.90153 0.72075 1.6351 1.6066 1.6351 0.88575 0 1.6064-0.7336 1.6064-1.6351 0-0.90076-0.72062-1.6337-1.6064-1.6337z" stroke="#fff" stroke-width=".5"/>
<path d="m5.3205 6.8012c-0.11762 0-0.2305-0.066229-0.28662-0.18-0.079125-0.16081-0.015-0.35593 0.14312-0.43678l6.5939-3.3534c0.15862-0.08072 0.35038-0.014619 0.4295 0.14555 0.079 0.16093 0.015 0.35606-0.14325 0.43678l-6.5937 3.3535c-0.046 0.02339-0.095 0.034322-0.14288 0.034322" stroke="#fff" stroke-width=".5"/>
<path d="m11.921 12.139c-0.04875 0-0.098375-0.011441-0.145-0.035593l-6.4758-3.3521c-0.1575-0.081483-0.22025-0.27725-0.14-0.43742 0.079875-0.16093 0.27238-0.22513 0.43038-0.14237l6.4759 3.3521c0.1575 0.081356 0.22012 0.27712 0.14 0.43742-0.0565 0.11314-0.169 0.17797-0.2855 0.17797" stroke="#fff" stroke-width=".5"/>
<path d="m3.5094 11.08c-1.9351 0-3.5094-1.6019-3.5094-3.5708 0-1.9677 1.5742-3.5683 3.5094-3.5683 0.66275 0 1.3079 0.18877 1.8655 0.54547 0.14975 0.095339 0.19475 0.29619 0.10062 0.44873-0.094125 0.1514-0.29212 0.19843-0.44138 0.10182-0.4555-0.29123-0.98275-0.44504-1.5248-0.44504-1.5821 0-2.8692 1.3089-2.8692 2.9174 0 1.6102 1.2871 2.9198 2.8692 2.9198 0.6 0 1.1741-0.18559 1.66-0.53657 0.14412-0.10424 0.34388-0.06928 0.44612 0.076398 0.1025 0.14682 0.068625 0.35021-0.0755 0.45381-0.59475 0.43042-1.297 0.65733-2.0306 0.65733"/>
</g>
</g>
</g>
</g>
</g>
</svg>
