<?xml version="1.0" encoding="UTF-8"?>
<svg version="1.1" viewBox="0 0 18 19" xmlns="http://www.w3.org/2000/svg">
<g fill="none" fill-rule="evenodd">
<g transform="translate(-23 -300)">
<g transform="translate(24 24)">
<g transform="translate(0 197)">
<g transform="translate(0 80)">
<path d="m7.8666 16.938c-0.048 0-0.096134-0.010055-0.14104-0.0299l-7.5224-3.3234c-0.12356-0.054904-0.20316-0.1753-0.20316-0.30892v-9.7697c0-0.1151 0.05916-0.2216 0.15718-0.28444 0.098017-0.062313 0.22131-0.072236 0.32807-0.024608l7.5223 3.3235c0.1237 0.054904 0.20329 0.1753 0.20329 0.30892v9.7697c0 0.1151-0.05916 0.2216-0.15731 0.28444-0.056471 0.035721-0.12155 0.054375-0.18689 0.054375zm-7.1781-3.8811l6.8337 3.0189v-9.0273l-6.8337-3.0189v9.0273z" stroke="#fff" stroke-width=".25"/>
<path d="m7.8666 16.938c-0.066151 0-0.13176-0.018654-0.18864-0.055698-0.09721-0.062181-0.1557-0.16868-0.1557-0.28312v-9.7697c0-0.13495 0.08121-0.25666 0.20666-0.31038l7.7486-3.3234c0.10635-0.046305 0.22897-0.036382 0.32618 0.027121 0.09721 0.062313 0.1557 0.16881 0.1557 0.28325v9.7697c0 0.13495-0.08121 0.25666-0.20666 0.31024l-7.7486 3.3234c-0.044101 0.019316-0.091025 0.028577-0.13755 0.028577zm0.3442-9.8869v9.0306l7.06-3.0275v-9.0306l-7.06 3.0275z" stroke="#fff" stroke-width=".25"/>
<path d="m7.9797 7.1678c-0.048538 0-0.097076-0.0099225-0.14225-0.030429l-7.6354-3.4074c-0.12518-0.055566-0.2045-0.17927-0.20195-0.31421 0.0024202-0.13561 0.086319-0.25613 0.21338-0.30773l7.6355-3.0832c0.08363-0.033075 0.17761-0.033075 0.26138 0l7.6354 3.0832c0.12706 0.051597 0.21109 0.17212 0.21351 0.30773 0.0025546 0.13495-0.076908 0.25865-0.20195 0.31421l-7.6355 3.4074c-0.045176 0.020506-0.093714 0.030429-0.14212 0.030429zm-6.7671-3.7309l6.7671 3.0203 6.7671-3.0203-6.7671-2.7325-6.7671 2.7325z" stroke="#fff" stroke-width=".25"/>
<path d="m10.814 5.9029c-0.047731 0-0.095462-0.010055-0.13997-0.029238l-7.4549-3.2638c-0.12504-0.054904-0.20531-0.17728-0.20424-0.31223 0.0010756-0.13495 0.083227-0.256 0.20921-0.30892l2.389-1.0031c0.087395-0.035721 0.18635-0.037044 0.27348 0.001323l7.4719 3.2288c0.12518 0.054243 0.20585 0.17596 0.20585 0.31024 0 0.13442-0.080807 0.25613-0.20598 0.31038l-2.4061 1.0382c-0.043966 0.019183-0.09116 0.028444-0.13822 0.028444zm-6.5931-3.596l6.5942 2.8868 1.5482-0.66772-6.6171-2.8595-1.5252 0.64046z"/>
<path d="m10.825 10.901c-0.066017 0-0.13176-0.018522-0.18864-0.055566-0.096941-0.062181-0.15529-0.16868-0.15556-0.28246l-0.01116-4.998c-2.689e-4 -0.13495 0.080672-0.25666 0.20612-0.3109l2.4061-1.0382c0.10662-0.045643 0.22924-0.035721 0.32645 0.02646 0.097344 0.062842 0.15597 0.16934 0.15597 0.28378v5.0165c0 0.13495-0.081479 0.25746-0.2076 0.31104l-2.3949 1.0195c-0.043832 0.018522-0.090353 0.027783-0.13674 0.027783zm0.33371-5.1158l0.0094118 4.2616 1.7076-0.72646v-4.2755l-1.717 0.74035z"/>
</g>
</g>
</g>
</g>
</g>
</svg>
