<svg xmlns="http://www.w3.org/2000/svg" width="18" height="19" viewBox="0 0 18 19">
  <path fill-rule="evenodd" d="M21.2523721,26.5199778 C21.4491163,26.7226444 21.7186977,26.8368556 22,26.8368556 C22.2815116,26.8368556 22.5508837,26.7226444 22.7478372,26.5199778 L26.9227907,22.2204889 C27.3271628,21.8041778 27.3202558,21.1358 26.9073023,20.7277222 C26.4943488,20.3200667 25.8316977,20.3268222 25.4273256,20.7433444 L23.0465116,23.1951889 L23.0465116,14.0555556 C23.0465116,13.4726778 22.5778837,13 22,13 C21.4221163,13 20.9534884,13.4726778 20.9534884,14.0555556 L20.9534884,23.1949778 L18.573093,20.7433444 C18.1687209,20.3268222 17.5064884,20.3200667 17.0931163,20.7277222 C16.6803721,21.1358 16.6734651,21.8039667 17.0778372,22.2204889 L21.2523721,26.5199778 Z M31,25.1961 L31,30.9444444 C31,31.5273222 30.5313721,32 29.9534884,32 L14.0465116,32 C13.4686279,32 13,31.5273222 13,30.9444444 L13,25.1961 C13,24.6132222 13.4686279,24.1405444 14.0465116,24.1405444 C14.6243953,24.1405444 15.0930233,24.6132222 15.0930233,25.1961 L15.0930233,29.8888889 L28.9069767,29.8888889 L28.9069767,25.1961 C28.9069767,24.6132222 29.3756047,24.1405444 29.9534884,24.1405444 C30.5313721,24.1405444 31,24.6132222 31,25.1961 L31,25.1961 Z" transform="translate(-13 -13)"/>
</svg>
