<?xml version="1.0" encoding="UTF-8"?>
<svg version="1.1" viewBox="0 0 17 16" xmlns="http://www.w3.org/2000/svg">
<g fill-rule="evenodd">
<g transform="translate(-24 -154)">
<g transform="translate(24 24)">
<g transform="translate(0 129)">
<g transform="translate(0 2)">
<path d="m15.525 13.694h-3.1758c-0.1755 0-0.31764-0.13976-0.31764-0.31232v-13.069c0-0.17256 0.14214-0.3122 0.31764-0.3122h3.1758c0.17538 0 0.31752 0.13963 0.31752 0.3122v13.069c0 0.17256-0.14214 0.31232-0.31752 0.31232zm-2.8583-0.62463h2.5407v-12.445h-2.5407v12.445z" stroke="#fff" stroke-width=".5"/>
<path d="m10.444 13.694h-3.1758c-0.17538 0-0.31764-0.13976-0.31764-0.31232v-6.1646c0-0.17256 0.14226-0.31232 0.31764-0.31232h3.1758c0.1755 0 0.31764 0.13976 0.31764 0.31232v6.1646c0 0.17256-0.14214 0.31232-0.31764 0.31232zm-2.8582-0.62463h2.5407v-5.5401h-2.5407v5.5401z" stroke="#fff" stroke-width=".5"/>
<path d="m5.3625 13.694h-3.1758c-0.17538 0-0.31764-0.13976-0.31764-0.31232v-9.3196c0-0.17256 0.14226-0.3122 0.31764-0.3122h3.1758c0.17538 0 0.31764 0.13963 0.31764 0.3122v9.3196c0 0.17256-0.14226 0.31232-0.31764 0.31232zm-2.8583-0.62463h2.5407v-8.695h-2.5407v8.695z" stroke="#fff" stroke-width=".5"/>
<path d="m0.34667 14.969c-0.17538 0-0.31752-0.13976-0.31752-0.31232 0-0.17256 0.14214-0.3122 0.31752-0.3122h15.394c0.17538 0 0.31752 0.20716 0.31752 0.3122s-0.14214 0.31232-0.31752 0.31232h-15.394z"/>
<path d="m0.31764 7.1624c-0.1755 0-0.31764-0.13976-0.31764-0.31232v-1.249c0-0.17256 0.14214-0.3122 0.31764-0.3122 0.17526 0 0.31752 0.13963 0.31752 0.3122v1.249c0 0.17256-0.14226 0.31232-0.31752 0.31232"/>
<path d="m0.31764 4.6644c-0.1755 0-0.31764-0.13976-0.31764-0.31232v-1.249c0-0.17256 0.14214-0.31232 0.31764-0.31232 0.17526 0 0.31752 0.13976 0.31752 0.31232v1.249c0 0.17256-0.14226 0.31232-0.31752 0.31232"/>
<path d="m0.31764 2.1662c-0.1755 0-0.31764-0.13963-0.31764-0.3122v-1.249c0-0.17268 0.14214-0.31232 0.31764-0.31232 0.17526 0 0.31752 0.13963 0.31752 0.31232v1.249c0 0.17256-0.14226 0.3122-0.31752 0.3122"/>
<path d="m0.31764 14.969c-0.1755 0-0.31764-0.13976-0.31764-0.31232v-1.5612c0-0.17268 0.14214-0.31232 0.31764-0.31232 0.17526 0 0.31752 0.13963 0.31752 0.31232v1.5612c0 0.17256-0.14226 0.31232-0.31752 0.31232"/>
<path d="m0.31764 12.159c-0.1755 0-0.31764-0.13963-0.31764-0.31232v-1.249c0-0.17256 0.14214-0.3122 0.31764-0.3122 0.17526 0 0.31752 0.13963 0.31752 0.3122v1.249c0 0.17268-0.14226 0.31232-0.31752 0.31232"/>
<path d="m0.31764 9.6605c-0.1755 0-0.31764-0.13963-0.31764-0.31232v-1.249c0-0.17256 0.14214-0.3122 0.31764-0.3122 0.17526 0 0.31752 0.13963 0.31752 0.3122v1.249c0 0.17268-0.14226 0.31232-0.31752 0.31232"/>
</g>
</g>
</g>
</g>
</g>
</svg>
