<svg xmlns="http://www.w3.org/2000/svg" width="12" height="18" viewBox="0 0 12 18">
  <path fill-rule="evenodd" d="M25.8181818,28.3722059 L22.6518182,25.2214118 C22.4467273,25.0210294 22.168,24.8529412 21.8775455,24.8529412 C21.5685455,24.8529412 21.2873636,25.0318824 21.0847273,25.2402059 L18.1818182,28.2785 L18.1818182,16.1176471 L25.8181818,16.1176471 L25.8181818,28.3722059 Z M17.0909091,14 C16.4884545,14 16,14.4740882 16,15.0588235 L16,30.9411765 C16,31.3747647 16.2727273,31.7646765 16.6878182,31.9248235 C16.8184545,31.9753824 16.9550909,32 17.0906364,32 C17.3851818,32 17.6737273,31.8843235 17.884,31.6683235 L21.8971818,27.545 L26.1350909,31.6871176 C26.4462727,31.9912647 26.9159091,32.0833824 27.3247273,31.9200588 C27.7332727,31.7564706 28,31.37 28,30.9411765 L28,15.0588235 C28,14.4740882 27.5115455,14 26.9090909,14 L17.0909091,14 Z" transform="translate(-16 -14)"/>
</svg>
