<?xml version="1.0" encoding="UTF-8"?>
<svg version="1.1" viewBox="0 0 18 18" xmlns="http://www.w3.org/2000/svg">
<g fill-rule="evenodd">
<g transform="translate(-23 -69)">
<g transform="translate(24 24)">
<g transform="translate(0 43)">
<g transform="translate(0 3)">
<path d="m9.853 0.66077c2.9893 0 5.4212 2.4516 5.4212 5.465 0 3.0134-2.4319 5.465-5.4212 5.465-2.9894 0-5.4213-2.4516-5.4213-5.465 0-3.0134 2.4319-5.465 5.4213-5.465m0-0.66077c-3.3562 0-6.0768 2.7426-6.0768 6.1258 0 3.3832 2.7206 6.1258 6.0768 6.1258 3.3562 0 6.0767-2.7426 6.0767-6.1258 0-3.3832-2.7205-6.1258-6.0767-6.1258" stroke="#fff" stroke-width=".5"/>
<path d="m9.4158 10.57c-0.18099 0-0.32781-0.14774-0.32781-0.33032 0-0.18271 0.14682-0.33045 0.32781-0.33045 2.2751 0 4.1258-1.8662 4.1258-4.1595 0-0.18271 0.14682-0.33045 0.32781-0.33045s0.32768 0.14774 0.32768 0.33045c0 2.6579-2.1449 4.8203-4.7813 4.8203"/>
<path d="m1.2655 15.905c-0.22362 0-0.4256-0.08-0.57178-0.2271l-0.46822-0.47174c-0.15232-0.15355-0.23232-0.36852-0.22502-0.60529 0.009728-0.32142 0.1783-0.65819 0.45133-0.90155l4.6952-4.2614c0.13453-0.12323 0.34202-0.1111 0.46285 0.023871 0.12109 0.13613 0.11021 0.34452-0.024192 0.46645l-4.6973 4.2635c-0.13798 0.12335-0.22861 0.2911-0.2327 0.42916-0.001152 0.037419 0.00384 0.088387 0.033408 0.11806l0.46822 0.47174c0.029696 0.030323 0.081408 0.034194 0.11686 0.033548 0.13709-0.003871 0.30323-0.094839 0.42406-0.23226l4.2033-4.7094c0.12109-0.13677 0.32794-0.1471 0.46285-0.025161 0.13453 0.12194 0.14541 0.33097 0.024448 0.46658l-4.2019 4.708c-0.24064 0.27368-0.5751 0.44335-0.89331 0.45303h-0.028032" stroke="#fff" stroke-width=".5"/>
</g>
</g>
</g>
</g>
</g>
</svg>
