<svg xmlns="http://www.w3.org/2000/svg" width="20" height="23" viewBox="0 0 20 23">
  <g fill-rule="evenodd" transform="translate(-1359 -26)">
    <path d="M18.000019,12.7082702 C18.000017,12.7074637 18.000016,12.7066569 18.000016,12.70585 C18.000016,12.164375 18.447736,11.725425 19.000028,11.725425 C19.552294,11.725425 20.000014,12.164375 20.000014,12.70585 C20.000014,12.7064086 20.0000135,12.7069671 20.0000126,12.7075255 C19.9990904,18.1213055 15.5222703,22.5098 9.999998,22.5098 C4.477182,22.5098 8e-06,18.1204 8e-06,12.70585 C8e-06,7.29308361 4.47419152,2.90490739 9.99446407,2.90197647 L9.99493098,4.86270144 C5.57896189,4.8653988 2.000006,8.3758645 2.000006,12.70585 C2.000006,17.03745 5.581714,20.54895 10.000024,20.54895 C14.4174851,20.54895 17.9986818,17.0387579 18.0000156,12.7082702 Z M10.0079275,6.60486532 L10.0079025,1.73935385 C9.97173262,1.44140391 10.0704498,1.13086402 10.304094,0.902325 C10.708914,0.506325 11.365492,0.506525 11.770624,0.902775 L15.1823414,3.28945799 C15.2500543,3.3261842 15.3144493,3.37089593 15.3740878,3.42359506 L15.412262,3.4503 C15.6163247,3.64992645 15.7176681,3.91193171 15.7162757,4.17344176 C15.7170497,4.43417205 15.6157096,4.69522518 15.412262,4.894275 L15.3740711,4.9209906 C15.3144474,4.97366879 15.2500716,5.01836592 15.1823817,5.05508252 L11.770624,7.4417 C11.365518,7.83805 10.708914,7.8382 10.304094,7.44225 C10.0703746,7.21359418 9.97166914,6.90291809 10.0079275,6.60486532 Z" transform="matrix(-1 0 0 1 1379 26)"/>
  </g>
</svg>
