<?xml version="1.0" encoding="UTF-8"?>
<svg version="1.1" viewBox="0 0 17 17" xmlns="http://www.w3.org/2000/svg">
<g fill-rule="evenodd">
<g transform="translate(-23 -110)">
<g transform="translate(24 24)">
<g transform="translate(0 86)">
<g transform="translate(0 1)">
<path d="m15.61 1.2343h-9.4341c-0.1727 0-0.31279-0.13963-0.31279-0.31232 0-0.17256 0.14009-0.3122 0.31279-0.3122h9.4341c0.1727 0 0.31267 0.13963 0.31267 0.3122 0 0.17268-0.13997 0.31232-0.31267 0.31232" stroke="#fff" stroke-linecap="round" stroke-linejoin="round" stroke-width=".5"/>
<path d="m10.893 2.9416h-4.7172c-0.1727 0-0.31279-0.13976-0.31279-0.31232 0-0.17256 0.14009-0.3122 0.31279-0.3122h4.7172c0.1727 0 0.31267 0.13963 0.31267 0.3122 0 0.17256-0.13997 0.31232-0.31267 0.31232"/>
<path d="m10.893 9.0391h-4.7172c-0.1727 0-0.31279-0.13976-0.31279-0.31232 0-0.17256 0.14009-0.3122 0.31279-0.3122h4.7172c0.1727 0 0.31267 0.13963 0.31267 0.3122 0 0.17256-0.13997 0.31232-0.31267 0.31232"/>
<path d="m10.893 14.283h-4.7172c-0.1727 0-0.31279-0.13976-0.31279-0.31232s0.14009-0.3122 0.31279-0.3122h4.7172c0.1727 0 0.31267 0.13963 0.31267 0.3122s-0.13997 0.31232-0.31267 0.31232"/>
<path d="m15.61 7.0879h-9.4341c-0.1727 0-0.31279-0.13976-0.31279-0.31232 0-0.17256 0.14009-0.3122 0.31279-0.3122h9.4341c0.1727 0 0.31267 0.13963 0.31267 0.3122 0 0.17256-0.13997 0.31232-0.31267 0.31232" stroke="#fff" stroke-linecap="round" stroke-linejoin="round" stroke-width=".5"/>
<path d="m15.61 12.576h-9.4341c-0.1727 0-0.31279-0.13963-0.31279-0.31232 0-0.17256 0.14009-0.3122 0.31279-0.3122h9.4341c0.1727 0 0.31267 0.13963 0.31267 0.3122 0 0.17268-0.13997 0.31232-0.31267 0.31232" stroke="#fff" stroke-linecap="round" stroke-linejoin="round" stroke-width=".5"/>
<path d="m0.62547 0.62451h2.5019v2.498h-2.5019v-2.498zm-0.62547 3.1226h3.7528v-3.7471h-3.7528v3.7471z" stroke="#fff" stroke-linecap="round" stroke-linejoin="round" stroke-width=".5"/>
<path d="m0.62547 6.2343h2.5019v2.498h-2.5019v-2.498zm-0.62547 3.1226h3.7528v-3.7471h-3.7528v3.7471z" stroke="#fff" stroke-linecap="round" stroke-linejoin="round" stroke-width=".5"/>
<path d="m0.62547 11.844h2.5019v2.498h-2.5019v-2.498zm-0.62547 3.1226h3.7528v-3.7471h-3.7528v3.7471z" stroke="#fff" stroke-linecap="round" stroke-linejoin="round" stroke-width=".5"/>
</g>
</g>
</g>
</g>
</g>
</svg>
